<svg xmlns="http://www.w3.org/2000/svg" width="20" height="20" viewBox="0 0 20 20" fill="none">
<path d="M17.4095 2.62426C17.3654 2.57934 17.3087 2.5488 17.2469 2.53664C17.1851 2.52448 17.1211 2.53128 17.0633 2.55613L2.68811 8.74307C2.63418 8.76647 2.58794 8.80461 2.55471 8.85311C2.52147 8.90162 2.5026 8.95851 2.50025 9.01725C2.4979 9.076 2.51217 9.13422 2.54142 9.18522C2.57067 9.23622 2.61372 9.27794 2.66561 9.30557L6.8344 11.5125C6.86123 11.5276 6.89194 11.5344 6.92264 11.5321C6.95335 11.5297 6.98267 11.5184 7.0069 11.4993L13.4382 6.31179C13.4682 6.28698 13.5063 6.27424 13.5452 6.27606C13.5841 6.27788 13.6208 6.29414 13.6484 6.32165C13.6759 6.34916 13.6921 6.38595 13.694 6.42481C13.6958 6.46368 13.683 6.50183 13.6582 6.53179L8.47067 12.9631C8.45143 12.9869 8.43962 13.0158 8.43673 13.0463C8.43384 13.0767 8.43999 13.1074 8.45442 13.1344L10.6613 17.3032C10.6879 17.3534 10.7277 17.3954 10.7763 17.4247C10.825 17.4539 10.8808 17.4694 10.9376 17.4694H10.9494C11.0082 17.4671 11.0651 17.4483 11.1136 17.4151C11.1622 17.382 11.2003 17.3358 11.2238 17.2819L17.4739 2.96926C17.4989 2.91192 17.5062 2.84838 17.4947 2.78687C17.4832 2.72536 17.4535 2.66871 17.4095 2.62426Z" fill="#00A49F"/>
</svg>
