<svg width="56" height="56" viewBox="0 0 56 56" fill="none" xmlns="http://www.w3.org/2000/svg">
<mask id="mask0_1591_11617" style="mask-type:alpha" maskUnits="userSpaceOnUse" x="0" y="0" width="56" height="56">
<rect x="0.5" width="56" height="56" fill="#D9D9D9"/>
</mask>
<g mask="url(#mask0_1591_11617)">
<path d="M14.5898 40.8333L9.91851 45.5041C9.25468 46.1683 8.49109 46.3176 7.62776 45.9521C6.76482 45.5861 6.33334 44.9328 6.33334 43.9921V10.0514C6.33334 8.8727 6.74168 7.875 7.55834 7.05834C8.37501 6.24167 9.3727 5.83334 10.5514 5.83334H46.4486C47.6273 5.83334 48.625 6.24167 49.4417 7.05834C50.2583 7.875 50.6667 8.8727 50.6667 10.0514V36.6152C50.6667 37.794 50.2583 38.7917 49.4417 39.6083C48.625 40.425 47.6273 40.8333 46.4486 40.8333H14.5898ZM16.8333 32.0833H30.8333C31.3292 32.0833 31.7447 31.9155 32.0799 31.5799C32.4155 31.2443 32.5833 30.8286 32.5833 30.3328C32.5833 29.8365 32.4155 29.421 32.0799 29.0862C31.7447 28.7509 31.3292 28.5833 30.8333 28.5833H16.8333C16.3375 28.5833 15.922 28.7511 15.5868 29.0868C15.2511 29.4224 15.0833 29.8381 15.0833 30.3339C15.0833 30.8301 15.2511 31.2457 15.5868 31.5805C15.922 31.9157 16.3375 32.0833 16.8333 32.0833ZM16.8333 25.0833H40.1667C40.6625 25.0833 41.078 24.9155 41.4133 24.5799C41.7489 24.2443 41.9167 23.8286 41.9167 23.3328C41.9167 22.8365 41.7489 22.421 41.4133 22.0862C41.078 21.7509 40.6625 21.5833 40.1667 21.5833H16.8333C16.3375 21.5833 15.922 21.7511 15.5868 22.0868C15.2511 22.4224 15.0833 22.8381 15.0833 23.3339C15.0833 23.8301 15.2511 24.2457 15.5868 24.5805C15.922 24.9157 16.3375 25.0833 16.8333 25.0833ZM16.8333 18.0833H40.1667C40.6625 18.0833 41.078 17.9155 41.4133 17.5799C41.7489 17.2443 41.9167 16.8286 41.9167 16.3328C41.9167 15.8365 41.7489 15.421 41.4133 15.0862C41.078 14.7509 40.6625 14.5833 40.1667 14.5833H16.8333C16.3375 14.5833 15.922 14.7511 15.5868 15.0868C15.2511 15.4224 15.0833 15.8381 15.0833 16.3339C15.0833 16.8301 15.2511 17.2457 15.5868 17.5805C15.922 17.9157 16.3375 18.0833 16.8333 18.0833Z" fill="#E2E6ED"/>
</g>
</svg>
