<svg width="184" height="31" viewBox="0 0 184 31" fill="none" xmlns="http://www.w3.org/2000/svg">
<g clip-path="url(#clip0_401_720)">
<path d="M109.608 9.276L108.033 5.195C107.986 5.07367 107.937 4.93367 107.886 4.775C107.835 4.61167 107.786 4.439 107.739 4.257C107.641 4.635 107.541 4.95 107.438 5.202L105.863 9.276H109.608ZM112.436 13H111.386C111.265 13 111.167 12.9697 111.092 12.909C111.017 12.8483 110.961 12.7713 110.924 12.678L109.986 10.256H105.485L104.547 12.678C104.519 12.762 104.465 12.8367 104.386 12.902C104.307 12.9673 104.209 13 104.092 13H103.042L107.053 2.969H108.425L112.436 13ZM114.617 7.33C114.841 6.84467 115.117 6.46667 115.443 6.196C115.77 5.92067 116.169 5.783 116.64 5.783C116.79 5.783 116.932 5.79933 117.067 5.832C117.207 5.86467 117.331 5.916 117.438 5.986L117.347 6.917C117.319 7.03367 117.249 7.092 117.137 7.092C117.072 7.092 116.976 7.078 116.85 7.05C116.724 7.022 116.582 7.008 116.423 7.008C116.199 7.008 115.999 7.04067 115.821 7.106C115.649 7.17133 115.492 7.26933 115.352 7.4C115.217 7.526 115.093 7.68467 114.981 7.876C114.874 8.06267 114.776 8.27733 114.687 8.52V13H113.434V5.909H114.148C114.284 5.909 114.377 5.93467 114.428 5.986C114.48 6.03733 114.515 6.126 114.533 6.252L114.617 7.33ZM125.114 13H123.868V6.952H120.214V11.208C120.214 11.5067 120.286 11.7283 120.431 11.873C120.576 12.0177 120.762 12.09 120.991 12.09C121.122 12.09 121.234 12.0737 121.327 12.041C121.425 12.0037 121.509 11.964 121.579 11.922C121.649 11.88 121.707 11.8427 121.754 11.81C121.805 11.7727 121.85 11.754 121.887 11.754C121.952 11.754 122.011 11.7937 122.062 11.873L122.426 12.468C122.211 12.6687 121.952 12.8273 121.649 12.944C121.346 13.056 121.033 13.112 120.711 13.112C120.151 13.112 119.719 12.9557 119.416 12.643C119.117 12.3303 118.968 11.88 118.968 11.292V6.952H118.114C118.039 6.952 117.976 6.931 117.925 6.889C117.874 6.84233 117.848 6.77233 117.848 6.679V6.182L119.01 6.028L119.297 3.844C119.311 3.774 119.341 3.718 119.388 3.676C119.439 3.62933 119.505 3.606 119.584 3.606H120.214V6.049H125.114V13ZM125.422 3.634C125.422 3.75533 125.396 3.86967 125.345 3.977C125.298 4.07967 125.233 4.17067 125.149 4.25C125.07 4.32933 124.976 4.39233 124.869 4.439C124.762 4.48567 124.647 4.509 124.526 4.509C124.405 4.509 124.29 4.48567 124.183 4.439C124.08 4.39233 123.989 4.32933 123.91 4.25C123.831 4.17067 123.768 4.07967 123.721 3.977C123.674 3.86967 123.651 3.75533 123.651 3.634C123.651 3.51267 123.674 3.39833 123.721 3.291C123.768 3.179 123.831 3.08333 123.91 3.004C123.989 2.92 124.08 2.85467 124.183 2.808C124.29 2.76133 124.405 2.738 124.526 2.738C124.647 2.738 124.762 2.76133 124.869 2.808C124.976 2.85467 125.07 2.92 125.149 3.004C125.233 3.08333 125.298 3.179 125.345 3.291C125.396 3.39833 125.422 3.51267 125.422 3.634ZM127.637 13V6.973L126.853 6.882C126.75 6.85867 126.668 6.82367 126.608 6.777C126.547 6.72567 126.517 6.65333 126.517 6.56V6.049H127.637V5.657C127.637 5.223 127.704 4.82633 127.84 4.467C127.975 4.103 128.178 3.79033 128.449 3.529C128.719 3.26767 129.055 3.06467 129.457 2.92C129.863 2.77533 130.332 2.703 130.864 2.703C131.041 2.703 131.223 2.71467 131.41 2.738C131.596 2.76133 131.757 2.79633 131.893 2.843L131.844 3.494C131.839 3.54067 131.82 3.57333 131.788 3.592C131.76 3.61067 131.72 3.62233 131.669 3.627C131.617 3.63167 131.552 3.634 131.473 3.634C131.398 3.62933 131.312 3.627 131.214 3.627C130.383 3.627 129.781 3.79967 129.408 4.145C129.034 4.48567 128.848 5.00133 128.848 5.692V6.049H133.132V13H131.879V6.952H128.883V13H127.637ZM140.108 7.169C140.07 7.22033 140.033 7.26 139.996 7.288C139.958 7.316 139.907 7.33 139.842 7.33C139.772 7.33 139.695 7.302 139.611 7.246C139.527 7.18533 139.422 7.12 139.296 7.05C139.174 6.98 139.023 6.917 138.841 6.861C138.663 6.80033 138.444 6.77 138.183 6.77C137.833 6.77 137.525 6.833 137.259 6.959C136.993 7.08033 136.769 7.25767 136.587 7.491C136.409 7.72433 136.274 8.00667 136.181 8.338C136.092 8.66933 136.048 9.04033 136.048 9.451C136.048 9.88033 136.097 10.263 136.195 10.599C136.293 10.9303 136.43 11.2103 136.608 11.439C136.79 11.663 137.007 11.8357 137.259 11.957C137.515 12.0737 137.802 12.132 138.12 12.132C138.423 12.132 138.673 12.097 138.869 12.027C139.065 11.9523 139.226 11.8707 139.352 11.782C139.482 11.6933 139.59 11.614 139.674 11.544C139.762 11.4693 139.849 11.432 139.933 11.432C140.035 11.432 140.115 11.4717 140.171 11.551L140.521 12.006C140.367 12.1973 140.192 12.3607 139.996 12.496C139.8 12.6313 139.587 12.7457 139.359 12.839C139.135 12.9277 138.899 12.993 138.652 13.035C138.404 13.077 138.152 13.098 137.896 13.098C137.452 13.098 137.039 13.0163 136.657 12.853C136.279 12.6897 135.95 12.454 135.67 12.146C135.39 11.8333 135.17 11.4507 135.012 10.998C134.853 10.5453 134.774 10.0297 134.774 9.451C134.774 8.92367 134.846 8.436 134.991 7.988C135.14 7.54 135.355 7.155 135.635 6.833C135.919 6.50633 136.267 6.252 136.678 6.07C137.093 5.888 137.569 5.797 138.106 5.797C138.605 5.797 139.044 5.87867 139.422 6.042C139.804 6.20067 140.143 6.427 140.437 6.721L140.108 7.169ZM143.174 5.909V13H141.928V5.909H143.174ZM143.44 3.683C143.44 3.80433 143.414 3.91867 143.363 4.026C143.316 4.12867 143.251 4.222 143.167 4.306C143.088 4.38533 142.992 4.44833 142.88 4.495C142.773 4.54167 142.658 4.565 142.537 4.565C142.416 4.565 142.301 4.54167 142.194 4.495C142.091 4.44833 142 4.38533 141.921 4.306C141.842 4.222 141.779 4.12867 141.732 4.026C141.685 3.91867 141.662 3.80433 141.662 3.683C141.662 3.56167 141.685 3.44733 141.732 3.34C141.779 3.228 141.842 3.13233 141.921 3.053C142 2.969 142.091 2.90367 142.194 2.857C142.301 2.81033 142.416 2.787 142.537 2.787C142.658 2.787 142.773 2.81033 142.88 2.857C142.992 2.90367 143.088 2.969 143.167 3.053C143.251 3.13233 143.316 3.228 143.363 3.34C143.414 3.44733 143.44 3.56167 143.44 3.683ZM149.064 9.808C148.49 9.82667 148 9.87333 147.594 9.948C147.193 10.018 146.864 10.1113 146.607 10.228C146.355 10.3447 146.171 10.4823 146.054 10.641C145.942 10.7997 145.886 10.977 145.886 11.173C145.886 11.3597 145.917 11.5207 145.977 11.656C146.038 11.7913 146.12 11.9033 146.222 11.992C146.33 12.076 146.453 12.139 146.593 12.181C146.738 12.2183 146.892 12.237 147.055 12.237C147.275 12.237 147.475 12.216 147.657 12.174C147.839 12.1273 148.01 12.062 148.168 11.978C148.332 11.894 148.486 11.7937 148.63 11.677C148.78 11.5603 148.924 11.4273 149.064 11.278V9.808ZM145.039 6.91C145.431 6.532 145.854 6.24967 146.306 6.063C146.759 5.87633 147.261 5.783 147.811 5.783C148.208 5.783 148.56 5.84833 148.868 5.979C149.176 6.10967 149.435 6.29167 149.645 6.525C149.855 6.75833 150.014 7.04067 150.121 7.372C150.229 7.70333 150.282 8.06733 150.282 8.464V13H149.729C149.608 13 149.515 12.9813 149.449 12.944C149.384 12.902 149.333 12.8227 149.295 12.706L149.155 12.034C148.969 12.2067 148.787 12.3607 148.609 12.496C148.432 12.6267 148.245 12.7387 148.049 12.832C147.853 12.9207 147.643 12.9883 147.419 13.035C147.2 13.0863 146.955 13.112 146.684 13.112C146.409 13.112 146.15 13.0747 145.907 13C145.665 12.9207 145.452 12.804 145.27 12.65C145.093 12.496 144.951 12.3023 144.843 12.069C144.741 11.831 144.689 11.551 144.689 11.229C144.689 10.949 144.766 10.6807 144.92 10.424C145.074 10.1627 145.324 9.93167 145.669 9.731C146.015 9.53033 146.465 9.367 147.02 9.241C147.576 9.11033 148.257 9.03567 149.064 9.017V8.464C149.064 7.91333 148.945 7.498 148.707 7.218C148.469 6.93333 148.122 6.791 147.664 6.791C147.356 6.791 147.097 6.83067 146.887 6.91C146.682 6.98467 146.502 7.071 146.348 7.169C146.199 7.26233 146.068 7.34867 145.956 7.428C145.849 7.50267 145.742 7.54 145.634 7.54C145.55 7.54 145.478 7.519 145.417 7.477C145.357 7.43033 145.305 7.37433 145.263 7.309L145.039 6.91ZM153.468 2.689V13H152.222V2.689H153.468Z" fill="#00DED2"/>
<path d="M105.639 29H104.281V18.969H105.639V29ZM108.977 22.938C109.131 22.7653 109.295 22.609 109.467 22.469C109.64 22.329 109.822 22.21 110.013 22.112C110.209 22.0093 110.415 21.9323 110.629 21.881C110.849 21.825 111.084 21.797 111.336 21.797C111.724 21.797 112.064 21.8623 112.358 21.993C112.657 22.119 112.904 22.301 113.1 22.539C113.301 22.7723 113.453 23.0547 113.555 23.386C113.658 23.7173 113.709 24.0837 113.709 24.485V29H112.456V24.485C112.456 23.9483 112.333 23.533 112.085 23.239C111.843 22.9403 111.472 22.791 110.972 22.791C110.604 22.791 110.258 22.8797 109.936 23.057C109.619 23.2343 109.325 23.4747 109.054 23.778V29H107.801V21.909H108.55C108.728 21.909 108.837 21.9953 108.879 22.168L108.977 22.938ZM117.689 29.112C117.129 29.112 116.698 28.9557 116.394 28.643C116.096 28.3303 115.946 27.88 115.946 27.292V22.952H115.092C115.018 22.952 114.955 22.931 114.903 22.889C114.852 22.8423 114.826 22.7723 114.826 22.679V22.182L115.988 22.035L116.275 19.844C116.289 19.774 116.32 19.718 116.366 19.676C116.418 19.6293 116.483 19.606 116.562 19.606H117.192V22.049H119.243V22.952H117.192V27.208C117.192 27.5067 117.265 27.7283 117.409 27.873C117.554 28.0177 117.741 28.09 117.969 28.09C118.1 28.09 118.212 28.0737 118.305 28.041C118.403 28.0037 118.487 27.964 118.557 27.922C118.627 27.88 118.686 27.8427 118.732 27.81C118.784 27.7727 118.828 27.754 118.865 27.754C118.931 27.754 118.989 27.7937 119.04 27.873L119.404 28.468C119.19 28.6687 118.931 28.8273 118.627 28.944C118.324 29.056 118.011 29.112 117.689 29.112ZM125.235 24.681C125.235 24.3917 125.193 24.128 125.109 23.89C125.03 23.6473 124.911 23.4397 124.752 23.267C124.598 23.0897 124.409 22.9543 124.185 22.861C123.961 22.763 123.707 22.714 123.422 22.714C122.825 22.714 122.351 22.889 122.001 23.239C121.656 23.5843 121.441 24.065 121.357 24.681H125.235ZM126.243 28.006C126.089 28.1927 125.905 28.356 125.69 28.496C125.475 28.6313 125.244 28.7433 124.997 28.832C124.754 28.9207 124.502 28.986 124.241 29.028C123.98 29.0747 123.721 29.098 123.464 29.098C122.974 29.098 122.521 29.0163 122.106 28.853C121.695 28.685 121.338 28.4423 121.035 28.125C120.736 27.803 120.503 27.4063 120.335 26.935C120.167 26.4637 120.083 25.9223 120.083 25.311C120.083 24.8163 120.158 24.3543 120.307 23.925C120.461 23.4957 120.68 23.1247 120.965 22.812C121.25 22.4947 121.597 22.2473 122.008 22.07C122.419 21.888 122.881 21.797 123.394 21.797C123.819 21.797 124.211 21.8693 124.57 22.014C124.934 22.154 125.247 22.3593 125.508 22.63C125.774 22.896 125.982 23.2273 126.131 23.624C126.28 24.016 126.355 24.464 126.355 24.968C126.355 25.164 126.334 25.2947 126.292 25.36C126.25 25.4253 126.171 25.458 126.054 25.458H121.315C121.329 25.906 121.39 26.2957 121.497 26.627C121.609 26.9583 121.763 27.236 121.959 27.46C122.155 27.6793 122.388 27.845 122.659 27.957C122.93 28.0643 123.233 28.118 123.569 28.118C123.882 28.118 124.15 28.083 124.374 28.013C124.603 27.9383 124.799 27.859 124.962 27.775C125.125 27.691 125.261 27.614 125.368 27.544C125.48 27.4693 125.576 27.432 125.655 27.432C125.758 27.432 125.837 27.4717 125.893 27.551L126.243 28.006ZM129.173 18.689V29H127.927V18.689H129.173ZM132.482 18.689V29H131.236V18.689H132.482ZM135.819 21.909V29H134.573V21.909H135.819ZM136.085 19.683C136.085 19.8043 136.059 19.9187 136.008 20.026C135.961 20.1287 135.896 20.222 135.812 20.306C135.732 20.3853 135.637 20.4483 135.525 20.495C135.417 20.5417 135.303 20.565 135.182 20.565C135.06 20.565 134.946 20.5417 134.839 20.495C134.736 20.4483 134.645 20.3853 134.566 20.306C134.486 20.222 134.423 20.1287 134.377 20.026C134.33 19.9187 134.307 19.8043 134.307 19.683C134.307 19.5617 134.33 19.4473 134.377 19.34C134.423 19.228 134.486 19.1323 134.566 19.053C134.645 18.969 134.736 18.9037 134.839 18.857C134.946 18.8103 135.06 18.787 135.182 18.787C135.303 18.787 135.417 18.8103 135.525 18.857C135.637 18.9037 135.732 18.969 135.812 19.053C135.896 19.1323 135.961 19.228 136.008 19.34C136.059 19.4473 136.085 19.5617 136.085 19.683ZM140.337 25.535C140.589 25.535 140.811 25.5 141.002 25.43C141.193 25.36 141.354 25.262 141.485 25.136C141.616 25.01 141.714 24.8607 141.779 24.688C141.844 24.5107 141.877 24.317 141.877 24.107C141.877 23.673 141.744 23.3277 141.478 23.071C141.217 22.8143 140.836 22.686 140.337 22.686C139.833 22.686 139.448 22.8143 139.182 23.071C138.921 23.3277 138.79 23.673 138.79 24.107C138.79 24.317 138.823 24.5107 138.888 24.688C138.958 24.8607 139.058 25.01 139.189 25.136C139.32 25.262 139.481 25.36 139.672 25.43C139.863 25.5 140.085 25.535 140.337 25.535ZM142.584 29.385C142.584 29.2123 142.535 29.0723 142.437 28.965C142.339 28.8577 142.206 28.7737 142.038 28.713C141.875 28.6523 141.683 28.6103 141.464 28.587C141.245 28.559 141.011 28.538 140.764 28.524C140.521 28.51 140.274 28.496 140.022 28.482C139.77 28.468 139.527 28.4447 139.294 28.412C139.033 28.5333 138.818 28.6873 138.65 28.874C138.487 29.056 138.405 29.2707 138.405 29.518C138.405 29.6767 138.445 29.8237 138.524 29.959C138.608 30.099 138.734 30.218 138.902 30.316C139.07 30.4187 139.28 30.498 139.532 30.554C139.789 30.6147 140.09 30.645 140.435 30.645C140.771 30.645 141.072 30.6147 141.338 30.554C141.604 30.4933 141.828 30.407 142.01 30.295C142.197 30.183 142.339 30.05 142.437 29.896C142.535 29.742 142.584 29.5717 142.584 29.385ZM143.851 22.189V22.651C143.851 22.805 143.753 22.903 143.557 22.945L142.752 23.05C142.911 23.358 142.99 23.6987 142.99 24.072C142.99 24.4173 142.922 24.7323 142.787 25.017C142.656 25.297 142.474 25.5373 142.241 25.738C142.008 25.9387 141.728 26.0927 141.401 26.2C141.074 26.3073 140.72 26.361 140.337 26.361C140.006 26.361 139.693 26.3213 139.399 26.242C139.25 26.3353 139.135 26.4357 139.056 26.543C138.977 26.6457 138.937 26.7507 138.937 26.858C138.937 27.026 139.005 27.1543 139.14 27.243C139.28 27.327 139.462 27.3877 139.686 27.425C139.91 27.4623 140.164 27.4857 140.449 27.495C140.738 27.5043 141.032 27.5207 141.331 27.544C141.634 27.5627 141.928 27.5977 142.213 27.649C142.502 27.7003 142.759 27.7843 142.983 27.901C143.207 28.0177 143.387 28.1787 143.522 28.384C143.662 28.5893 143.732 28.8553 143.732 29.182C143.732 29.4853 143.655 29.7793 143.501 30.064C143.352 30.3487 143.135 30.6007 142.85 30.82C142.565 31.044 142.215 31.2213 141.8 31.352C141.389 31.4873 140.925 31.555 140.407 31.555C139.889 31.555 139.436 31.5037 139.049 31.401C138.662 31.2983 138.34 31.1607 138.083 30.988C137.826 30.8153 137.633 30.6147 137.502 30.386C137.376 30.162 137.313 29.9263 137.313 29.679C137.313 29.329 137.423 29.0327 137.642 28.79C137.861 28.5473 138.162 28.3537 138.545 28.209C138.335 28.1157 138.167 27.992 138.041 27.838C137.92 27.6793 137.859 27.467 137.859 27.201C137.859 27.0983 137.878 26.9933 137.915 26.886C137.952 26.774 138.008 26.6643 138.083 26.557C138.162 26.445 138.258 26.34 138.37 26.242C138.482 26.144 138.613 26.0577 138.762 25.983C138.412 25.787 138.139 25.528 137.943 25.206C137.747 24.8793 137.649 24.5013 137.649 24.072C137.649 23.7267 137.714 23.414 137.845 23.134C137.98 22.8493 138.167 22.609 138.405 22.413C138.643 22.2123 138.925 22.0583 139.252 21.951C139.583 21.8437 139.945 21.79 140.337 21.79C140.645 21.79 140.932 21.825 141.198 21.895C141.464 21.9603 141.707 22.0583 141.926 22.189H143.851ZM149.776 24.681C149.776 24.3917 149.734 24.128 149.65 23.89C149.571 23.6473 149.452 23.4397 149.293 23.267C149.139 23.0897 148.95 22.9543 148.726 22.861C148.502 22.763 148.248 22.714 147.963 22.714C147.366 22.714 146.892 22.889 146.542 23.239C146.197 23.5843 145.982 24.065 145.898 24.681H149.776ZM150.784 28.006C150.63 28.1927 150.446 28.356 150.231 28.496C150.016 28.6313 149.785 28.7433 149.538 28.832C149.295 28.9207 149.043 28.986 148.782 29.028C148.521 29.0747 148.262 29.098 148.005 29.098C147.515 29.098 147.062 29.0163 146.647 28.853C146.236 28.685 145.879 28.4423 145.576 28.125C145.277 27.803 145.044 27.4063 144.876 26.935C144.708 26.4637 144.624 25.9223 144.624 25.311C144.624 24.8163 144.699 24.3543 144.848 23.925C145.002 23.4957 145.221 23.1247 145.506 22.812C145.791 22.4947 146.138 22.2473 146.549 22.07C146.96 21.888 147.422 21.797 147.935 21.797C148.36 21.797 148.752 21.8693 149.111 22.014C149.475 22.154 149.788 22.3593 150.049 22.63C150.315 22.896 150.523 23.2273 150.672 23.624C150.821 24.016 150.896 24.464 150.896 24.968C150.896 25.164 150.875 25.2947 150.833 25.36C150.791 25.4253 150.712 25.458 150.595 25.458H145.856C145.87 25.906 145.931 26.2957 146.038 26.627C146.15 26.9583 146.304 27.236 146.5 27.46C146.696 27.6793 146.929 27.845 147.2 27.957C147.471 28.0643 147.774 28.118 148.11 28.118C148.423 28.118 148.691 28.083 148.915 28.013C149.144 27.9383 149.34 27.859 149.503 27.775C149.666 27.691 149.802 27.614 149.909 27.544C150.021 27.4693 150.117 27.432 150.196 27.432C150.299 27.432 150.378 27.4717 150.434 27.551L150.784 28.006ZM153.602 22.938C153.756 22.7653 153.92 22.609 154.092 22.469C154.265 22.329 154.447 22.21 154.638 22.112C154.834 22.0093 155.04 21.9323 155.254 21.881C155.474 21.825 155.709 21.797 155.961 21.797C156.349 21.797 156.689 21.8623 156.983 21.993C157.282 22.119 157.529 22.301 157.725 22.539C157.926 22.7723 158.078 23.0547 158.18 23.386C158.283 23.7173 158.334 24.0837 158.334 24.485V29H157.081V24.485C157.081 23.9483 156.958 23.533 156.71 23.239C156.468 22.9403 156.097 22.791 155.597 22.791C155.229 22.791 154.883 22.8797 154.561 23.057C154.244 23.2343 153.95 23.4747 153.679 23.778V29H152.426V21.909H153.175C153.353 21.909 153.462 21.9953 153.504 22.168L153.602 22.938ZM165.168 23.169C165.131 23.2203 165.093 23.26 165.056 23.288C165.019 23.316 164.967 23.33 164.902 23.33C164.832 23.33 164.755 23.302 164.671 23.246C164.587 23.1853 164.482 23.12 164.356 23.05C164.235 22.98 164.083 22.917 163.901 22.861C163.724 22.8003 163.504 22.77 163.243 22.77C162.893 22.77 162.585 22.833 162.319 22.959C162.053 23.0803 161.829 23.2577 161.647 23.491C161.47 23.7243 161.334 24.0067 161.241 24.338C161.152 24.6693 161.108 25.0403 161.108 25.451C161.108 25.8803 161.157 26.263 161.255 26.599C161.353 26.9303 161.491 27.2103 161.668 27.439C161.85 27.663 162.067 27.8357 162.319 27.957C162.576 28.0737 162.863 28.132 163.18 28.132C163.483 28.132 163.733 28.097 163.929 28.027C164.125 27.9523 164.286 27.8707 164.412 27.782C164.543 27.6933 164.65 27.614 164.734 27.544C164.823 27.4693 164.909 27.432 164.993 27.432C165.096 27.432 165.175 27.4717 165.231 27.551L165.581 28.006C165.427 28.1973 165.252 28.3607 165.056 28.496C164.86 28.6313 164.648 28.7457 164.419 28.839C164.195 28.9277 163.959 28.993 163.712 29.035C163.465 29.077 163.213 29.098 162.956 29.098C162.513 29.098 162.1 29.0163 161.717 28.853C161.339 28.6897 161.01 28.454 160.73 28.146C160.45 27.8333 160.231 27.4507 160.072 26.998C159.913 26.5453 159.834 26.0297 159.834 25.451C159.834 24.9237 159.906 24.436 160.051 23.988C160.2 23.54 160.415 23.155 160.695 22.833C160.98 22.5063 161.327 22.252 161.738 22.07C162.153 21.888 162.629 21.797 163.166 21.797C163.665 21.797 164.104 21.8787 164.482 22.042C164.865 22.2007 165.203 22.427 165.497 22.721L165.168 23.169ZM171.542 24.681C171.542 24.3917 171.5 24.128 171.416 23.89C171.336 23.6473 171.217 23.4397 171.059 23.267C170.905 23.0897 170.716 22.9543 170.492 22.861C170.268 22.763 170.013 22.714 169.729 22.714C169.131 22.714 168.658 22.889 168.308 23.239C167.962 23.5843 167.748 24.065 167.664 24.681H171.542ZM172.55 28.006C172.396 28.1927 172.211 28.356 171.997 28.496C171.782 28.6313 171.551 28.7433 171.304 28.832C171.061 28.9207 170.809 28.986 170.548 29.028C170.286 29.0747 170.027 29.098 169.771 29.098C169.281 29.098 168.828 29.0163 168.413 28.853C168.002 28.685 167.645 28.4423 167.342 28.125C167.043 27.803 166.81 27.4063 166.642 26.935C166.474 26.4637 166.39 25.9223 166.39 25.311C166.39 24.8163 166.464 24.3543 166.614 23.925C166.768 23.4957 166.987 23.1247 167.272 22.812C167.556 22.4947 167.904 22.2473 168.315 22.07C168.725 21.888 169.187 21.797 169.701 21.797C170.125 21.797 170.517 21.8693 170.877 22.014C171.241 22.154 171.553 22.3593 171.815 22.63C172.081 22.896 172.288 23.2273 172.438 23.624C172.587 24.016 172.662 24.464 172.662 24.968C172.662 25.164 172.641 25.2947 172.599 25.36C172.557 25.4253 172.477 25.458 172.361 25.458H167.622C167.636 25.906 167.696 26.2957 167.804 26.627C167.916 26.9583 168.07 27.236 168.266 27.46C168.462 27.6793 168.695 27.845 168.966 27.957C169.236 28.0643 169.54 28.118 169.876 28.118C170.188 28.118 170.457 28.083 170.681 28.013C170.909 27.9383 171.105 27.859 171.269 27.775C171.432 27.691 171.567 27.614 171.675 27.544C171.787 27.4693 171.882 27.432 171.962 27.432C172.064 27.432 172.144 27.4717 172.2 27.551L172.55 28.006Z" fill="#00DED2"/>
<path d="M25.4956 9.21002C25.3526 9.12372 25.1896 9.07557 25.0225 9.0702C24.8554 9.06484 24.6896 9.10245 24.5413 9.1794C24.5016 9.19998 24.4634 9.22333 24.427 9.24926L24.4212 9.255C24.3381 9.3149 24.2603 9.38182 24.1886 9.45502C23.6178 10.0206 22.6981 10.9566 22.1302 11.5241C22.0898 11.5654 22.0468 11.6041 22.0014 11.6399V11.6399L21.986 11.6514C21.9436 11.6233 21.9041 11.5912 21.8678 11.5557C21.739 11.4284 21.6122 11.3001 21.4834 11.1729C21.3796 11.0685 21.2768 10.9642 21.172 10.8609L20.8261 10.5163C20.4676 10.1594 20.1092 9.80146 19.7469 9.44832L19.7334 9.43779C19.6424 9.32343 19.5266 9.23111 19.3945 9.16779C19.2625 9.10446 19.1178 9.07178 18.9713 9.07221H18.9608C18.8089 9.07455 18.6597 9.11155 18.5245 9.18035C18.4847 9.20094 18.4465 9.22428 18.4101 9.25022L18.4034 9.25596C18.3208 9.3158 18.2433 9.38238 18.1718 9.45502C17.9084 9.71533 17.5711 10.0551 17.229 10.4005L16.0758 11.549C16.0399 11.5852 16.0017 11.6191 15.9614 11.6504C15.9212 11.6223 15.8838 11.5902 15.85 11.5547C15.7212 11.4274 15.5943 11.2992 15.4656 11.1719L15.1542 10.8599L14.8082 10.5154C14.4498 10.1584 14.0913 9.8005 13.7281 9.44736C13.5625 9.27178 13.3485 9.14891 13.113 9.09422C13.0947 9.09422 13.0755 9.09422 13.0573 9.08752C13.0236 9.08155 12.9896 9.0774 12.9554 9.07508C12.9525 9.0746 12.9496 9.0746 12.9468 9.07508H12.9295C12.9179 9.07508 12.9064 9.07508 12.8939 9.07508C12.8785 9.0741 12.8631 9.0741 12.8478 9.07508H12.841H12.817C12.7905 9.07775 12.7642 9.0819 12.7382 9.08752C12.72 9.08752 12.7027 9.09901 12.6844 9.10379C12.5063 9.15932 12.3449 9.25797 12.2145 9.3909C12.0357 9.56603 11.8301 9.7737 11.6138 9.98712C11.175 10.4299 10.7313 10.8714 10.2828 11.3116L9.97243 11.6198C9.96055 11.6307 9.94803 11.6409 9.93495 11.6504L9.92053 11.6399C9.89427 11.6218 9.86952 11.6016 9.84653 11.5796C9.80425 11.5413 9.76293 11.4992 9.72256 11.4581L9.06235 10.7987C8.60747 10.3431 8.15163 9.88918 7.69483 9.43683C7.4344 9.18035 7.15763 9.06073 6.87605 9.06934C6.86037 9.06836 6.84464 9.06836 6.82896 9.06934H6.8232H6.79917C6.77269 9.07201 6.74638 9.07616 6.72037 9.08178C6.70211 9.08178 6.68481 9.09326 6.66655 9.09805C6.48828 9.15376 6.32655 9.25237 6.19566 9.38515C6.01787 9.56029 5.81125 9.76796 5.59599 9.98138C5.15328 10.4216 4.71026 10.8618 4.26691 11.3021L3.64129 11.9251C3.58337 11.981 3.52972 12.0411 3.48081 12.105L3.24632 12.3395C3.06422 12.5073 2.95289 12.7378 2.93485 12.9842C2.9168 13.2307 2.99338 13.4748 3.1491 13.6671C3.30483 13.8595 3.52808 13.9859 3.77376 14.0206C4.01943 14.0554 4.26919 13.996 4.47257 13.8544L4.47833 13.8487C4.56147 13.7888 4.63928 13.7219 4.7109 13.6487C5.28558 13.0917 6.20335 12.1567 6.77226 11.5892C6.81297 11.5479 6.85596 11.5089 6.90104 11.4724L6.9193 11.4648C6.9619 11.4925 7.00152 11.5246 7.0375 11.5605C7.16628 11.6868 7.29313 11.815 7.42191 11.9433C7.5257 12.0476 7.62852 12.1519 7.73327 12.2562L8.07924 12.6007C8.43769 12.9577 8.79615 13.3147 9.15845 13.6678L9.17191 13.6793C9.26338 13.7931 9.37957 13.8847 9.51172 13.9474C9.64388 14.0101 9.78858 14.0421 9.93495 14.041H9.94552C10.0964 14.0391 10.2447 14.0024 10.3789 13.9339C10.4187 13.9133 10.4569 13.8899 10.4933 13.864L10.4991 13.8583C10.5822 13.7983 10.66 13.7314 10.7316 13.6582C10.994 13.3979 11.3313 13.0582 11.6734 12.7137L12.8266 11.5652C12.8625 11.5293 12.9007 11.4957 12.941 11.4648C12.9811 11.4931 13.0184 11.5252 13.0525 11.5605C13.1812 11.6868 13.3081 11.815 13.4369 11.9433C13.5407 12.0476 13.6435 12.1519 13.7482 12.2562L14.0942 12.6007C14.4527 12.9577 14.8111 13.3147 15.1734 13.6678C15.3394 13.8435 15.5536 13.9666 15.7894 14.0219C15.8077 14.0219 15.8269 14.0219 15.8452 14.0286C15.8789 14.0344 15.9129 14.0382 15.947 14.0401H15.9528H15.971C15.9826 14.0401 15.9941 14.0401 16.0056 14.0401H16.0527H16.0595H16.0835C16.1099 14.0373 16.1363 14.0331 16.1623 14.0276C16.1805 14.0276 16.1978 14.0162 16.2161 14.0114C16.3939 13.9553 16.5553 13.8567 16.686 13.7243C16.8638 13.5491 17.0704 13.3415 17.2847 13.129C17.7287 12.6888 18.1724 12.2482 18.6157 11.8074L18.9262 11.4982C18.9396 11.4868 18.9531 11.4753 18.9627 11.4686C18.968 11.4714 18.9731 11.4746 18.978 11.4782V11.4782C19.0041 11.4961 19.0288 11.516 19.052 11.5375C19.0943 11.5767 19.1357 11.6179 19.176 11.659L19.8362 12.3194C20.2911 12.7743 20.7469 13.2279 21.2037 13.6802C21.4632 13.9367 21.741 14.0573 22.0225 14.0487H22.0687H22.0754H22.0994C22.1259 14.046 22.1522 14.0419 22.1782 14.0363C22.1965 14.0363 22.2138 14.0248 22.232 14.02C22.4099 13.9641 22.5713 13.8655 22.702 13.7329C22.8807 13.5577 23.0864 13.3501 23.3007 13.1376C23.7447 12.6974 24.1883 12.2568 24.6317 11.816L25.2582 11.1776C25.3159 11.1211 25.3695 11.0607 25.4187 10.9968L25.6532 10.7633C25.7649 10.6604 25.851 10.5332 25.9048 10.3915C25.9586 10.2499 25.9787 10.0977 25.9634 9.94704C25.9481 9.79636 25.8979 9.65127 25.8168 9.52321C25.7356 9.39515 25.6256 9.28761 25.4956 9.20906V9.21002Z" fill="#00DED2"/>
<path d="M25.4956 22.2608C25.3526 22.3471 25.1896 22.3953 25.0225 22.4007C24.8553 22.406 24.6896 22.3684 24.5413 22.2915C24.5016 22.2709 24.4634 22.2475 24.427 22.2216L24.4212 22.2159C24.3381 22.156 24.2602 22.089 24.1886 22.0158C23.6178 21.4503 22.6981 20.5143 22.1301 19.9468C22.0894 19.9055 22.0465 19.8665 22.0014 19.83L21.986 19.8185C21.9434 19.8463 21.9038 19.8784 21.8678 19.9142C21.739 20.0415 21.6122 20.1698 21.4834 20.297C21.3796 20.4014 21.2768 20.5066 21.172 20.61L20.8261 20.9545C20.4676 21.3115 20.1091 21.6694 19.7468 22.0225L19.7334 22.0331C19.6419 22.1469 19.5257 22.2385 19.3936 22.3012C19.2614 22.3638 19.1167 22.3959 18.9703 22.3948H18.9598C18.808 22.3925 18.6587 22.3555 18.5235 22.2867C18.4838 22.2661 18.4455 22.2428 18.4091 22.2168L18.4024 22.2111C18.3197 22.1509 18.2423 22.084 18.1708 22.0111C17.9075 21.7508 17.5702 21.411 17.228 21.0655L16.0748 19.9171C16.039 19.8808 16.0008 19.847 15.9605 19.8157C15.9202 19.8438 15.8829 19.8758 15.849 19.9114C15.7202 20.0387 15.5934 20.1669 15.4646 20.2942L15.1532 20.6071L14.8073 20.9516C14.4488 21.3086 14.0903 21.6665 13.7271 22.0197C13.5613 22.1949 13.3474 22.3178 13.112 22.3728C13.0938 22.3728 13.0746 22.3728 13.0563 22.3795C13.0217 22.3795 12.9881 22.391 12.9544 22.392H12.9458H12.9285C12.9169 22.392 12.9054 22.392 12.8929 22.392H12.8468H12.8401H12.816C12.7896 22.3893 12.7633 22.3851 12.7372 22.3795C12.719 22.3795 12.7017 22.368 12.6834 22.3632C12.5055 22.3074 12.3441 22.2088 12.2135 22.0761C12.0347 21.901 11.8291 21.6933 11.6129 21.4799L10.2828 20.1592L9.97241 19.8501L9.93493 19.8205L9.92052 19.83C9.89445 19.848 9.86972 19.8678 9.84652 19.8894C9.80424 19.9286 9.76291 19.9707 9.72255 20.0119L9.06234 20.6712C8.60778 21.1258 8.15322 21.5814 7.69482 22.0321C7.43439 22.2896 7.15762 22.4092 6.87604 22.4006C6.8597 22.4006 6.84433 22.4006 6.82895 22.4006H6.82318H6.79916C6.77268 22.3979 6.74637 22.3937 6.72036 22.3881C6.7021 22.3881 6.6848 22.3766 6.66654 22.3719C6.48843 22.3158 6.32678 22.2172 6.19564 22.0848C6.01786 21.9096 5.81124 21.7019 5.59597 21.4885L4.2669 20.1678L3.64128 19.5448C3.58336 19.4886 3.52972 19.4281 3.48079 19.364L3.24919 19.1209C3.06708 18.953 2.95576 18.7226 2.93771 18.4761C2.91967 18.2297 2.99625 17.9856 3.15197 17.7932C3.3077 17.6008 3.53095 17.4745 3.77662 17.4397C4.0223 17.4049 4.27206 17.4643 4.47544 17.6059L4.4812 17.6117C4.56434 17.6716 4.64215 17.7385 4.71377 17.8117C5.28557 18.3782 6.20333 19.3123 6.77225 19.8865C6.81296 19.9278 6.85595 19.9667 6.90103 20.0032V20.0032L6.9164 20.0147C6.95901 19.987 6.99862 19.9549 7.03461 19.919C7.16338 19.7917 7.29023 19.6635 7.41901 19.5362C7.5228 19.4329 7.62563 19.3276 7.73038 19.2242L8.07634 18.8797C8.4348 18.5227 8.79325 18.1648 9.15555 17.8117L9.16901 17.8011C9.26049 17.6874 9.37667 17.5957 9.50883 17.533C9.64099 17.4704 9.78568 17.4384 9.93205 17.4394H9.94262C10.0944 17.4417 10.2437 17.4787 10.3789 17.5475C10.4186 17.5681 10.4569 17.5915 10.4933 17.6174L10.499 17.6231C10.5822 17.683 10.66 17.75 10.7316 17.8232C10.994 18.0835 11.3313 18.4222 11.6734 18.7677L12.8266 19.9162C12.8625 19.9524 12.9007 19.9863 12.941 20.0176C12.981 19.9892 13.0184 19.9572 13.0525 19.9219C13.1812 19.7946 13.3081 19.6664 13.4369 19.5391C13.5406 19.4357 13.6435 19.3305 13.7482 19.2271L14.0942 18.8826C14.4526 18.5256 14.8111 18.1677 15.1734 17.8145C15.3397 17.6394 15.5538 17.5167 15.7894 17.4614C15.8077 17.4614 15.8269 17.4614 15.8451 17.4547C15.8788 17.4486 15.9128 17.4445 15.947 17.4423H15.9528H15.971H16.0056C16.022 17.4423 16.0383 17.4423 16.0527 17.4423H16.0594H16.0835C16.1099 17.4451 16.1362 17.4492 16.1623 17.4547C16.1805 17.4547 16.1978 17.4662 16.2161 17.471C16.3939 17.5271 16.5552 17.6256 16.686 17.7581C16.8638 17.9332 17.0704 18.1409 17.2847 18.3533C17.7287 18.7936 18.1724 19.2341 18.6157 19.675L18.9261 19.9841L18.9627 20.0138L18.978 20.0042C19.0041 19.9862 19.0288 19.9664 19.052 19.9449C19.0943 19.9056 19.1356 19.8635 19.176 19.8224L19.8362 19.163C20.2908 18.7084 20.7453 18.2529 21.2037 17.8021C21.4632 17.5447 21.7409 17.425 22.0225 17.4337H22.0686H22.0754H22.0994C22.1259 17.4363 22.1522 17.4405 22.1782 17.4461C22.1965 17.4461 22.2138 17.4576 22.232 17.4624C22.4099 17.5183 22.5713 17.6168 22.7019 17.7495C22.8807 17.9246 23.0864 18.1323 23.3007 18.3447C23.7446 18.785 24.1883 19.2255 24.6317 19.6664L25.2573 20.2894C25.3149 20.3459 25.3686 20.4063 25.4178 20.4703L25.6523 20.7038C25.7639 20.8066 25.85 20.9339 25.9038 21.0755C25.9577 21.2172 25.9777 21.3693 25.9625 21.52C25.9472 21.6707 25.897 21.8158 25.8158 21.9438C25.7346 22.0719 25.6247 22.1794 25.4946 22.258L25.4956 22.2608Z" fill="#00DED2"/>
<path d="M6.90102 16.714C7.44398 16.714 7.88413 16.2757 7.88413 15.7349C7.88413 15.1942 7.44398 14.7559 6.90102 14.7559C6.35806 14.7559 5.91791 15.1942 5.91791 15.7349C5.91791 16.2757 6.35806 16.714 6.90102 16.714Z" fill="#00DED2"/>
<path d="M12.9439 16.714C13.4868 16.714 13.927 16.2757 13.927 15.7349C13.927 15.1942 13.4868 14.7559 12.9439 14.7559C12.4009 14.7559 11.9608 15.1942 11.9608 15.7349C11.9608 16.2757 12.4009 16.714 12.9439 16.714Z" fill="#00DED2"/>
<path d="M18.979 16.714C19.5219 16.714 19.9621 16.2757 19.9621 15.7349C19.9621 15.1942 19.5219 14.7559 18.979 14.7559C18.436 14.7559 17.9958 15.1942 17.9958 15.7349C17.9958 16.2757 18.436 16.714 18.979 16.714Z" fill="#00DED2"/>
<path d="M25.0141 16.714C25.5571 16.714 25.9972 16.2757 25.9972 15.7349C25.9972 15.1942 25.5571 14.7559 25.0141 14.7559C24.4712 14.7559 24.031 15.1942 24.031 15.7349C24.031 16.2757 24.4712 16.714 25.0141 16.714Z" fill="#00DED2"/>
<path d="M51.4505 16.6594C52.0608 16.4068 52.8921 16.2766 53.9088 16.2766C54.4756 16.2744 55.0419 16.2408 55.605 16.1761C57.1119 16.0068 58.1161 15.5062 58.6802 14.6516C58.9915 14.1585 59.1652 13.5918 59.1836 13.0096C59.202 12.4275 59.0644 11.851 58.785 11.3394C58.5185 10.8521 58.1474 10.4292 57.6981 10.101C57.2215 9.75902 56.6884 9.50282 56.123 9.344C54.5219 8.8741 52.8027 9.01765 51.414 9.73924C49.9542 10.4943 48.8424 11.9576 48.3638 13.752C47.7968 15.8804 48.2331 18.3945 49.4766 20.1554C50.4799 21.5756 52.178 22.391 54.1375 22.391C55.0543 22.4036 55.9615 22.2034 56.787 21.8063C57.4042 21.5035 57.9664 21.1006 58.4506 20.6138C58.5277 20.5354 58.5899 20.4436 58.6341 20.343C58.7199 20.1847 58.7628 20.0069 58.7588 19.8271C58.7548 19.6472 58.7039 19.4715 58.6112 19.3171C58.5185 19.1628 58.3871 19.035 58.2299 18.9464C58.0727 18.8578 57.8951 18.8114 57.7144 18.8118C57.5042 18.8113 57.2989 18.8751 57.1263 18.9946C57.1022 19.0114 57.0794 19.03 57.0581 19.0501L57.0167 19.0845C56.9993 19.0983 56.9826 19.1129 56.9668 19.1285L56.9466 19.1458C56.7228 19.3838 56.4722 19.5955 56.1999 19.7764C55.9027 19.9739 55.5834 20.1361 55.2485 20.2597C54.4824 20.5267 53.6454 20.5093 52.8911 20.2109C52.48 20.0548 52.0963 19.8348 51.7542 19.5592C51.4335 19.3032 51.1603 18.9932 50.947 18.6433C50.762 18.3444 50.6624 18.001 50.6587 17.65C50.6577 17.2069 50.9172 16.8815 51.4505 16.6594ZM54.2605 14.2257C53.9203 14.2257 53.5263 14.2411 53.0881 14.2726C52.6492 14.3039 52.2133 14.3679 51.784 14.464C51.3608 14.5582 50.9491 14.6974 50.5558 14.8794C50.4466 14.93 50.3401 14.9862 50.2368 15.0478C50.2695 14.9205 50.3012 14.733 50.3406 14.4736C50.3608 14.3348 50.379 14.2152 50.3934 14.1626C50.4882 13.8139 50.6254 13.4781 50.8019 13.1625C51.1417 12.5407 51.636 12.0161 52.2376 11.6389C52.8065 11.2896 53.6224 11.0647 54.4316 11.0647C55.3792 11.0647 56.3171 11.3748 56.8341 12.1595C57.0898 12.5481 57.1849 13.1836 56.8553 13.5951C56.5026 14.0353 55.8059 14.1415 55.3119 14.1836C54.9621 14.2104 54.6084 14.2257 54.2605 14.2257Z" fill="#00DED2"/>
<path d="M46.5128 9.1306C46.262 9.0431 45.9866 9.05837 45.7471 9.17305C45.5076 9.28772 45.3237 9.49242 45.2357 9.74213L42.2046 18.2778L39.4475 9.79859C39.4297 9.74874 39.4085 9.70014 39.3841 9.65313L39.3764 9.63781C39.3658 9.61772 39.3543 9.59858 39.3408 9.57752C39.2242 9.37068 39.0365 9.21267 38.8123 9.13251C38.6879 9.08854 38.5561 9.06944 38.4243 9.07629C38.2925 9.08314 38.1634 9.11582 38.0443 9.17245C37.9252 9.22907 37.8185 9.30854 37.7303 9.4063C37.6421 9.50405 37.5741 9.61818 37.5303 9.74213L34.5002 18.2759L31.7239 9.76605C31.6413 9.51414 31.4616 9.30521 31.2243 9.18524C30.9871 9.06526 30.7117 9.04405 30.4587 9.12629C30.2057 9.20853 29.9959 9.38747 29.8755 9.62375C29.755 9.86003 29.7337 10.1343 29.8163 10.3862L33.5037 21.7048C33.5674 21.9037 33.6922 22.0776 33.8605 22.2021C34.0287 22.3266 34.232 22.3953 34.4416 22.3987H34.4579C34.6656 22.3979 34.8679 22.333 35.0371 22.2131C35.2062 22.0931 35.3339 21.9239 35.4026 21.7288L38.4404 13.1816L41.2119 21.6991C41.2756 21.8978 41.4003 22.0716 41.5683 22.1961C41.7364 22.3206 41.9395 22.3894 42.1489 22.3929H42.1652C42.373 22.392 42.5754 22.3272 42.7447 22.2073C42.914 22.0873 43.0419 21.9182 43.1109 21.723L47.126 10.412C47.215 10.1611 47.2004 9.8853 47.0855 9.64507C46.9705 9.40483 46.7646 9.21981 46.5128 9.1306V9.1306Z" fill="#00DED2"/>
<path d="M75.6228 9.0722C75.3492 9.07372 75.0874 9.18315 74.8947 9.37651C74.702 9.56988 74.594 9.83142 74.5945 10.1039V21.3641C74.5945 21.6357 74.7029 21.8962 74.8957 22.0882C75.0886 22.2803 75.3501 22.3881 75.6228 22.3881C75.8955 22.3881 76.1571 22.2803 76.3499 22.0882C76.5428 21.8962 76.6511 21.6357 76.6511 21.3641V10.1039C76.6516 9.83142 76.5437 9.56988 76.351 9.37651C76.1582 9.18315 75.8964 9.07372 75.6228 9.0722V9.0722Z" fill="#00DED2"/>
<path d="M66.6307 9.07218C63.7092 9.16789 61.3326 11.7011 61.3326 14.7186V21.3469C61.3284 21.4866 61.3523 21.6257 61.4031 21.7561C61.4539 21.8864 61.5304 22.0052 61.6281 22.1055C61.7258 22.2059 61.8428 22.2856 61.9721 22.3401C62.1013 22.3945 62.2403 22.4226 62.3806 22.4226C62.521 22.4226 62.6599 22.3945 62.7892 22.3401C62.9184 22.2856 63.0354 22.2059 63.1331 22.1055C63.2309 22.0052 63.3074 21.8864 63.3581 21.7561C63.4089 21.6257 63.4328 21.4866 63.4286 21.3469V14.6478C63.4286 12.7931 64.8807 11.2197 66.6653 11.1413C67.1242 11.119 67.5828 11.1909 68.0126 11.3526C68.4425 11.5143 68.8343 11.7622 69.1639 12.081C69.4968 12.3987 69.7614 12.7804 69.9415 13.2031C70.1216 13.6257 70.2134 14.0805 70.2114 14.5396V21.3469C70.2114 21.6236 70.3217 21.8889 70.5182 22.0845C70.7146 22.2801 70.9811 22.39 71.2589 22.39C71.5367 22.39 71.8031 22.2801 71.9996 22.0845C72.196 21.8889 72.3064 21.6236 72.3064 21.3469V14.575C72.3095 13.8374 72.163 13.1068 71.8756 12.427C71.5883 11.7471 71.166 11.1321 70.6342 10.6187C70.1079 10.1029 69.4813 9.69964 68.7928 9.43369C68.1044 9.16774 67.3686 9.04472 66.6307 9.07218V9.07218Z" fill="#00DED2"/>
<line x1="90.35" y1="4" x2="90.35" y2="28" stroke="#00DED2" stroke-width="0.7"/>
</g>
<defs>
<clipPath id="clip0_401_720">
<rect width="184" height="31" fill="white"/>
</clipPath>
</defs>
</svg>
